<svg width="200" height="204" viewBox="0 0 200 204" fill="none" xmlns="http://www.w3.org/2000/svg">
<rect width="200" height="196.078" fill="#229DB8"/>
<path d="M131.265 19.0536C131.922 18.0901 132.258 16.9507 132.226 15.7924C132.195 14.6341 131.798 13.5138 131.089 12.5861C130.381 11.6584 129.397 10.9688 128.272 10.6125C127.148 10.2561 125.938 10.2506 124.81 10.5965C112.98 14.2286 102.843 21.8477 96.1929 32.1045C89.5431 42.3613 86.8098 54.5943 88.4771 66.6372C92.5639 67.0268 96.6014 67.811 100.531 68.9783C98.7667 61.6067 99.1532 53.8972 101.646 46.7307C104.14 39.5642 108.639 33.2299 114.63 28.4516C112.651 35.9321 112.417 43.7536 113.944 51.3352C115.471 58.9168 118.721 66.0636 123.452 72.245C128.183 78.4264 134.273 83.4835 141.271 87.0407C148.269 90.5979 155.995 92.5639 163.874 92.7926C156.386 97.8946 147.373 100.394 138.269 99.8943C140.12 103.445 141.64 107.198 142.771 111.096C151.02 110.751 159.07 108.502 166.265 104.531C173.46 100.561 179.597 94.9804 184.177 88.2448C184.833 87.2814 185.169 86.142 185.138 84.9836C185.106 83.8253 184.709 82.7051 184.001 81.7773C183.293 80.8496 182.308 80.16 181.184 79.8037C180.059 79.4474 178.849 79.4418 177.721 79.7877C169.617 82.2816 160.924 82.2495 152.839 79.696C144.754 77.1425 137.677 72.1933 132.582 65.5305C127.486 58.8678 124.625 50.8196 124.391 42.4954C124.157 34.1713 126.563 25.981 131.277 19.0536H131.265Z" fill="#FFC907"/>
<g clip-path="url(#clip0)">
<path d="M93 66.6667C104.573 66.6673 115.787 70.6026 124.731 77.8019C133.675 85.0012 139.796 95.0188 142.05 106.147C149.593 107.146 156.466 110.918 161.278 116.699C166.09 122.481 168.48 129.839 167.966 137.284C167.451 144.729 164.069 151.703 158.505 156.795C152.941 161.887 145.611 164.715 138 164.706H43C34.5822 164.708 26.4455 161.736 20.0815 156.334C13.7175 150.932 9.55255 143.462 8.35 135.294H63C64.3261 135.294 65.5978 134.778 66.5355 133.858C67.4732 132.939 68 131.692 68 130.392C68 129.092 67.4732 127.845 66.5355 126.926C65.5978 126.007 64.3261 125.49 63 125.49H8.35C9.65113 116.64 14.4251 108.636 21.6553 103.185C28.8855 97.7336 38.0007 95.2647 47.06 96.304C50.9257 87.5033 57.3371 80.006 65.5017 74.7387C73.6663 69.4715 83.2263 66.6652 93 66.6667V66.6667ZM33 145.098C31.6739 145.098 30.4021 145.615 29.4645 146.534C28.5268 147.453 28 148.7 28 150C28 151.3 28.5268 152.547 29.4645 153.466C30.4021 154.386 31.6739 154.902 33 154.902H123C124.326 154.902 125.598 154.386 126.536 153.466C127.473 152.547 128 151.3 128 150C128 148.7 127.473 147.453 126.536 146.534C125.598 145.615 124.326 145.098 123 145.098H33ZM8 179.412C8 178.112 8.52678 176.865 9.46447 175.946C10.4021 175.026 11.6739 174.51 13 174.51H103C104.326 174.51 105.598 175.026 106.536 175.946C107.473 176.865 108 178.112 108 179.412C108 180.712 107.473 181.959 106.536 182.878C105.598 183.797 104.326 184.314 103 184.314H13C11.6739 184.314 10.4021 183.797 9.46447 182.878C8.52678 181.959 8 180.712 8 179.412Z" fill="white"/>
</g>
<defs>
<clipPath id="clip0">
<rect width="160" height="156.863" fill="white" transform="translate(8 47.0588)"/>
</clipPath>
</defs>
</svg>
